# xmcd CD Database Entry
#
# Track frame offsets:
# 150
# 18055
# 32187
# 64802
# 81057
# 97450
# 106880
# 121457
# 147637
# 156955
# 178800
# 194805
# 210002
# 229720
# 246597
# 259705
# 272737
# 306247
#
# Disc length: 4414 seconds
#
# Revision: 2
# Processed by: cddbd v1.4PL0 Copyright (c) Steve Scherf et al.
# Submitted via: tcd 2.0b
#
DISCID=0b113c12
DTITLE=Τζίμης Πανούσης - Με λένε Πόπη
DYEAR=1900
DGENRE=
TTITLE0=Εισαγωγή
TTITLE1=Χημεία και Τέρατα
TTITLE2=Σατανικά
TTITLE3=Γαμάτε γιατί χανόμαστε
TTITLE4=Πολιτικά
TTITLE5=Αβραμόπουλος
TTITLE6=Κονσομανσιόν
TTITLE7=Ναγκασάκι
TTITLE8=Hellasong
TTITLE9=Millenium ποτ πουρί
TTITLE10=Τηλέφωνο ροζ
TTITLE11=Τηλέφωνο γκρι
TTITLE12=Νιόνιος for ever
TTITLE13=Νεοέλληνας
TTITLE14=Ποιήματα
TTITLE15=Do it
TTITLE16=Μονόλογος X
TTITLE17=Ποτ πουρί
EXTD=
EXTT0=\t
EXTT1=
EXTT2=
EXTT3=
EXTT4=
EXTT5=
EXTT6=
EXTT7=
EXTT8=
EXTT9=
EXTT10=
EXTT11=
EXTT12=
EXTT13=
EXTT14=
EXTT15=
EXTT16=
EXTT17=
PLAYORDER=
